<svg xmlns="http://www.w3.org/2000/svg" xmlns:xlink="http://www.w3.org/1999/xlink" width="2000" zoomAndPan="magnify" viewBox="0 0 1500 1499.999933" height="2000" preserveAspectRatio="xMidYMid meet" version="1.0"><defs><g/><clipPath id="af2f412517"><path d="M 529.761719 410.039062 L 970.011719 410.039062 L 970.011719 860.039062 L 529.761719 860.039062 Z M 529.761719 410.039062 " clip-rule="nonzero"/></clipPath><clipPath id="0dc28d4007"><path d="M 574.398438 432.300781 L 949.398438 432.300781 L 949.398438 807.300781 L 574.398438 807.300781 Z M 574.398438 432.300781 " clip-rule="nonzero"/></clipPath><clipPath id="81ee91b604"><rect x="0" width="921" y="0" height="140"/></clipPath><clipPath id="9e4683fddb"><rect x="0" width="474" y="0" height="62"/></clipPath></defs><g clip-path="url(#af2f412517)"><path stroke-linecap="butt" transform="matrix(0.75, 0, 0, 0.75, 529.763652, 410.040953)" fill="none" stroke-linejoin="miter" d="M -0.00257729 -0.00252024 L 587.294348 -0.00252024 L 587.294348 599.997531 L -0.00257729 599.997531 Z M -0.00257729 -0.00252024 " stroke="#00bf63" stroke-width="64" stroke-opacity="1" stroke-miterlimit="4"/></g><g clip-path="url(#0dc28d4007)"><path fill="#00bf63" d="M 633.683594 698.988281 L 574.417969 757.066406 L 574.417969 590.335938 L 633.683594 590.335938 Z M 732.457031 662.640625 L 701.441406 636.167969 L 673.191406 662.246094 L 673.191406 511.316406 L 732.457031 511.316406 Z M 831.230469 629.847656 L 771.964844 689.109375 L 771.964844 432.300781 L 831.230469 432.300781 Z M 886.742188 626.09375 L 850.984375 590.335938 L 949.757812 590.335938 L 949.757812 689.109375 L 914.398438 653.75 L 771.964844 794.996094 L 703.417969 735.335938 L 628.746094 807.640625 L 574.417969 807.640625 L 702.230469 682.394531 L 771.964844 741.261719 " fill-opacity="1" fill-rule="nonzero"/></g><g transform="matrix(1, 0, 0, 1, 303, 876)"><g clip-path="url(#81ee91b604)"><g fill="#000000" fill-opacity="1"><g transform="translate(3.734735, 110.375424)"><g><path d="M 32.21875 -60.34375 C 40.039062 -60.34375 46.035156 -58.390625 50.203125 -54.484375 C 54.378906 -50.578125 56.46875 -44.789062 56.46875 -37.125 L 56.46875 0 L 48.734375 0 L 48.734375 -9.34375 C 46.910156 -6.226562 44.234375 -3.796875 40.703125 -2.046875 C 37.171875 -0.304688 32.976562 0.5625 28.125 0.5625 C 21.445312 0.5625 16.132812 -1.03125 12.1875 -4.21875 C 8.238281 -7.40625 6.265625 -11.613281 6.265625 -16.84375 C 6.265625 -21.9375 8.101562 -26.035156 11.78125 -29.140625 C 15.46875 -32.253906 21.332031 -33.8125 29.375 -33.8125 L 48.390625 -33.8125 L 48.390625 -37.453125 C 48.390625 -42.617188 46.945312 -46.546875 44.0625 -49.234375 C 41.175781 -51.929688 36.960938 -53.28125 31.421875 -53.28125 C 27.628906 -53.28125 23.984375 -52.65625 20.484375 -51.40625 C 16.992188 -50.15625 14 -48.429688 11.5 -46.234375 L 7.859375 -52.265625 C 10.890625 -54.835938 14.53125 -56.828125 18.78125 -58.234375 C 23.03125 -59.640625 27.507812 -60.34375 32.21875 -60.34375 Z M 29.375 -5.8125 C 33.925781 -5.8125 37.832031 -6.851562 41.09375 -8.9375 C 44.363281 -11.019531 46.796875 -14.035156 48.390625 -17.984375 L 48.390625 -27.78125 L 29.609375 -27.78125 C 19.359375 -27.78125 14.234375 -24.210938 14.234375 -17.078125 C 14.234375 -13.585938 15.5625 -10.835938 18.21875 -8.828125 C 20.875 -6.816406 24.59375 -5.8125 29.375 -5.8125 Z M 29.375 -5.8125 "/></g></g></g><g fill="#000000" fill-opacity="1"><g transform="translate(97.559367, 110.375424)"><g><path d="M 11.265625 -84.484375 L 19.359375 -84.484375 L 19.359375 0 L 11.265625 0 Z M 11.265625 -84.484375 "/></g></g></g><g fill="#000000" fill-opacity="1"><g transform="translate(154.836704, 110.375424)"><g><path d="M 32.21875 -60.34375 C 40.039062 -60.34375 46.035156 -58.390625 50.203125 -54.484375 C 54.378906 -50.578125 56.46875 -44.789062 56.46875 -37.125 L 56.46875 0 L 48.734375 0 L 48.734375 -9.34375 C 46.910156 -6.226562 44.234375 -3.796875 40.703125 -2.046875 C 37.171875 -0.304688 32.976562 0.5625 28.125 0.5625 C 21.445312 0.5625 16.132812 -1.03125 12.1875 -4.21875 C 8.238281 -7.40625 6.265625 -11.613281 6.265625 -16.84375 C 6.265625 -21.9375 8.101562 -26.035156 11.78125 -29.140625 C 15.46875 -32.253906 21.332031 -33.8125 29.375 -33.8125 L 48.390625 -33.8125 L 48.390625 -37.453125 C 48.390625 -42.617188 46.945312 -46.546875 44.0625 -49.234375 C 41.175781 -51.929688 36.960938 -53.28125 31.421875 -53.28125 C 27.628906 -53.28125 23.984375 -52.65625 20.484375 -51.40625 C 16.992188 -50.15625 14 -48.429688 11.5 -46.234375 L 7.859375 -52.265625 C 10.890625 -54.835938 14.53125 -56.828125 18.78125 -58.234375 C 23.03125 -59.640625 27.507812 -60.34375 32.21875 -60.34375 Z M 29.375 -5.8125 C 33.925781 -5.8125 37.832031 -6.851562 41.09375 -8.9375 C 44.363281 -11.019531 46.796875 -14.035156 48.390625 -17.984375 L 48.390625 -27.78125 L 29.609375 -27.78125 C 19.359375 -27.78125 14.234375 -24.210938 14.234375 -17.078125 C 14.234375 -13.585938 15.5625 -10.835938 18.21875 -8.828125 C 20.875 -6.816406 24.59375 -5.8125 29.375 -5.8125 Z M 29.375 -5.8125 "/></g></g></g><g fill="#000000" fill-opacity="1"><g transform="translate(247.522781, 110.375424)"><g><path d="M 61.59375 -59.890625 L 34.953125 0 L 26.640625 0 L 0.109375 -59.890625 L 8.546875 -59.890625 L 30.96875 -8.875 L 53.625 -59.890625 Z M 61.59375 -59.890625 "/></g></g></g><g fill="#000000" fill-opacity="1"><g transform="translate(334.06073, 110.375424)"><g><path d="M 32.21875 -60.34375 C 40.039062 -60.34375 46.035156 -58.390625 50.203125 -54.484375 C 54.378906 -50.578125 56.46875 -44.789062 56.46875 -37.125 L 56.46875 0 L 48.734375 0 L 48.734375 -9.34375 C 46.910156 -6.226562 44.234375 -3.796875 40.703125 -2.046875 C 37.171875 -0.304688 32.976562 0.5625 28.125 0.5625 C 21.445312 0.5625 16.132812 -1.03125 12.1875 -4.21875 C 8.238281 -7.40625 6.265625 -11.613281 6.265625 -16.84375 C 6.265625 -21.9375 8.101562 -26.035156 11.78125 -29.140625 C 15.46875 -32.253906 21.332031 -33.8125 29.375 -33.8125 L 48.390625 -33.8125 L 48.390625 -37.453125 C 48.390625 -42.617188 46.945312 -46.546875 44.0625 -49.234375 C 41.175781 -51.929688 36.960938 -53.28125 31.421875 -53.28125 C 27.628906 -53.28125 23.984375 -52.65625 20.484375 -51.40625 C 16.992188 -50.15625 14 -48.429688 11.5 -46.234375 L 7.859375 -52.265625 C 10.890625 -54.835938 14.53125 -56.828125 18.78125 -58.234375 C 23.03125 -59.640625 27.507812 -60.34375 32.21875 -60.34375 Z M 29.375 -5.8125 C 33.925781 -5.8125 37.832031 -6.851562 41.09375 -8.9375 C 44.363281 -11.019531 46.796875 -14.035156 48.390625 -17.984375 L 48.390625 -27.78125 L 29.609375 -27.78125 C 19.359375 -27.78125 14.234375 -24.210938 14.234375 -17.078125 C 14.234375 -13.585938 15.5625 -10.835938 18.21875 -8.828125 C 20.875 -6.816406 24.59375 -5.8125 29.375 -5.8125 Z M 29.375 -5.8125 "/></g></g></g><g fill="#000000" fill-opacity="1"><g transform="translate(427.885362, 110.375424)"><g><path d="M 41.78125 -60.34375 C 49.300781 -60.34375 55.28125 -58.160156 59.71875 -53.796875 C 64.15625 -49.429688 66.375 -43.078125 66.375 -34.734375 L 66.375 0 L 58.296875 0 L 58.296875 -33.9375 C 58.296875 -40.15625 56.738281 -44.894531 53.625 -48.15625 C 50.507812 -51.425781 46.070312 -53.0625 40.3125 -53.0625 C 33.851562 -53.0625 28.742188 -51.144531 24.984375 -47.3125 C 21.234375 -43.476562 19.359375 -38.179688 19.359375 -31.421875 L 19.359375 0 L 11.265625 0 L 11.265625 -59.890625 L 19.015625 -59.890625 L 19.015625 -48.84375 C 21.210938 -52.488281 24.265625 -55.316406 28.171875 -57.328125 C 32.085938 -59.335938 36.625 -60.34375 41.78125 -60.34375 Z M 41.78125 -60.34375 "/></g></g></g><g fill="#000000" fill-opacity="1"><g transform="translate(531.843024, 110.375424)"><g><path d="M 36.09375 0.5625 C 30.175781 0.5625 24.878906 -0.722656 20.203125 -3.296875 C 15.535156 -5.878906 11.875 -9.503906 9.21875 -14.171875 C 6.5625 -18.835938 5.234375 -24.09375 5.234375 -29.9375 C 5.234375 -35.789062 6.5625 -41.03125 9.21875 -45.65625 C 11.875 -50.289062 15.535156 -53.894531 20.203125 -56.46875 C 24.878906 -59.050781 30.175781 -60.34375 36.09375 -60.34375 C 41.25 -60.34375 45.859375 -59.335938 49.921875 -57.328125 C 53.984375 -55.316406 57.191406 -52.375 59.546875 -48.5 L 53.515625 -44.40625 C 51.535156 -47.363281 49.023438 -49.582031 45.984375 -51.0625 C 42.953125 -52.539062 39.65625 -53.28125 36.09375 -53.28125 C 31.769531 -53.28125 27.878906 -52.3125 24.421875 -50.375 C 20.972656 -48.445312 18.28125 -45.695312 16.34375 -42.125 C 14.40625 -38.5625 13.4375 -34.5 13.4375 -29.9375 C 13.4375 -25.3125 14.40625 -21.234375 16.34375 -17.703125 C 18.28125 -14.171875 20.972656 -11.4375 24.421875 -9.5 C 27.878906 -7.570312 31.769531 -6.609375 36.09375 -6.609375 C 39.65625 -6.609375 42.953125 -7.328125 45.984375 -8.765625 C 49.023438 -10.210938 51.535156 -12.414062 53.515625 -15.375 L 59.546875 -11.265625 C 57.191406 -7.398438 53.960938 -4.460938 49.859375 -2.453125 C 45.765625 -0.441406 41.175781 0.5625 36.09375 0.5625 Z M 36.09375 0.5625 "/></g></g></g><g fill="#000000" fill-opacity="1"><g transform="translate(622.593592, 110.375424)"><g><path d="M 32.21875 -60.34375 C 40.039062 -60.34375 46.035156 -58.390625 50.203125 -54.484375 C 54.378906 -50.578125 56.46875 -44.789062 56.46875 -37.125 L 56.46875 0 L 48.734375 0 L 48.734375 -9.34375 C 46.910156 -6.226562 44.234375 -3.796875 40.703125 -2.046875 C 37.171875 -0.304688 32.976562 0.5625 28.125 0.5625 C 21.445312 0.5625 16.132812 -1.03125 12.1875 -4.21875 C 8.238281 -7.40625 6.265625 -11.613281 6.265625 -16.84375 C 6.265625 -21.9375 8.101562 -26.035156 11.78125 -29.140625 C 15.46875 -32.253906 21.332031 -33.8125 29.375 -33.8125 L 48.390625 -33.8125 L 48.390625 -37.453125 C 48.390625 -42.617188 46.945312 -46.546875 44.0625 -49.234375 C 41.175781 -51.929688 36.960938 -53.28125 31.421875 -53.28125 C 27.628906 -53.28125 23.984375 -52.65625 20.484375 -51.40625 C 16.992188 -50.15625 14 -48.429688 11.5 -46.234375 L 7.859375 -52.265625 C 10.890625 -54.835938 14.53125 -56.828125 18.78125 -58.234375 C 23.03125 -59.640625 27.507812 -60.34375 32.21875 -60.34375 Z M 29.375 -5.8125 C 33.925781 -5.8125 37.832031 -6.851562 41.09375 -8.9375 C 44.363281 -11.019531 46.796875 -14.035156 48.390625 -17.984375 L 48.390625 -27.78125 L 29.609375 -27.78125 C 19.359375 -27.78125 14.234375 -24.210938 14.234375 -17.078125 C 14.234375 -13.585938 15.5625 -10.835938 18.21875 -8.828125 C 20.875 -6.816406 24.59375 -5.8125 29.375 -5.8125 Z M 29.375 -5.8125 "/></g></g></g><g fill="#000000" fill-opacity="1"><g transform="translate(716.645933, 110.375424)"><g><path d="M 66.71875 -59.890625 L 66.71875 -7.28125 C 66.71875 2.882812 64.234375 10.414062 59.265625 15.3125 C 54.296875 20.207031 46.800781 22.65625 36.78125 22.65625 C 31.238281 22.65625 25.976562 21.835938 21 20.203125 C 16.03125 18.578125 11.988281 16.320312 8.875 13.4375 L 12.984375 7.28125 C 15.867188 9.863281 19.378906 11.875 23.515625 13.3125 C 27.648438 14.757812 31.992188 15.484375 36.546875 15.484375 C 44.140625 15.484375 49.71875 13.71875 53.28125 10.1875 C 56.851562 6.65625 58.640625 1.171875 58.640625 -6.265625 L 58.640625 -13.890625 C 56.128906 -10.097656 52.84375 -7.210938 48.78125 -5.234375 C 44.726562 -3.265625 40.234375 -2.28125 35.296875 -2.28125 C 29.679688 -2.28125 24.578125 -3.507812 19.984375 -5.96875 C 15.390625 -8.4375 11.78125 -11.890625 9.15625 -16.328125 C 6.539062 -20.773438 5.234375 -25.804688 5.234375 -31.421875 C 5.234375 -37.035156 6.539062 -42.046875 9.15625 -46.453125 C 11.78125 -50.859375 15.367188 -54.273438 19.921875 -56.703125 C 24.472656 -59.128906 29.597656 -60.34375 35.296875 -60.34375 C 40.378906 -60.34375 44.96875 -59.316406 49.0625 -57.265625 C 53.164062 -55.222656 56.472656 -52.265625 58.984375 -48.390625 L 58.984375 -59.890625 Z M 36.09375 -9.453125 C 40.414062 -9.453125 44.320312 -10.378906 47.8125 -12.234375 C 51.3125 -14.097656 54.023438 -16.695312 55.953125 -20.03125 C 57.890625 -23.375 58.859375 -27.171875 58.859375 -31.421875 C 58.859375 -35.671875 57.890625 -39.445312 55.953125 -42.75 C 54.023438 -46.050781 51.332031 -48.628906 47.875 -50.484375 C 44.425781 -52.347656 40.5 -53.28125 36.09375 -53.28125 C 31.769531 -53.28125 27.878906 -52.367188 24.421875 -50.546875 C 20.972656 -48.734375 18.28125 -46.15625 16.34375 -42.8125 C 14.40625 -39.46875 13.4375 -35.671875 13.4375 -31.421875 C 13.4375 -27.171875 14.40625 -23.375 16.34375 -20.03125 C 18.28125 -16.695312 20.972656 -14.097656 24.421875 -12.234375 C 27.878906 -10.378906 31.769531 -9.453125 36.09375 -9.453125 Z M 36.09375 -9.453125 "/></g></g></g><g fill="#000000" fill-opacity="1"><g transform="translate(821.400545, 110.375424)"><g><path d="M 63.421875 -27.4375 L 13.328125 -27.4375 C 13.773438 -21.21875 16.160156 -16.191406 20.484375 -12.359375 C 24.816406 -8.523438 30.285156 -6.609375 36.890625 -6.609375 C 40.609375 -6.609375 44.023438 -7.269531 47.140625 -8.59375 C 50.253906 -9.925781 52.945312 -11.878906 55.21875 -14.453125 L 59.78125 -9.21875 C 57.125 -6.03125 53.800781 -3.601562 49.8125 -1.9375 C 45.820312 -0.269531 41.4375 0.5625 36.65625 0.5625 C 30.507812 0.5625 25.0625 -0.742188 20.3125 -3.359375 C 15.570312 -5.972656 11.875 -9.59375 9.21875 -14.21875 C 6.5625 -18.851562 5.234375 -24.09375 5.234375 -29.9375 C 5.234375 -35.789062 6.503906 -41.03125 9.046875 -45.65625 C 11.585938 -50.289062 15.078125 -53.894531 19.515625 -56.46875 C 23.960938 -59.050781 28.957031 -60.34375 34.5 -60.34375 C 40.039062 -60.34375 45.007812 -59.050781 49.40625 -56.46875 C 53.8125 -53.894531 57.265625 -50.3125 59.765625 -45.71875 C 62.273438 -41.125 63.53125 -35.863281 63.53125 -29.9375 Z M 34.5 -53.40625 C 28.726562 -53.40625 23.890625 -51.5625 19.984375 -47.875 C 16.078125 -44.195312 13.859375 -39.394531 13.328125 -33.46875 L 55.796875 -33.46875 C 55.265625 -39.394531 53.039062 -44.195312 49.125 -47.875 C 45.21875 -51.5625 40.34375 -53.40625 34.5 -53.40625 Z M 34.5 -53.40625 "/></g></g></g></g></g><g transform="matrix(1, 0, 0, 1, 513, 1028)"><g clip-path="url(#9e4683fddb)"><g fill="#000000" fill-opacity="1"><g transform="translate(0.744557, 49.119933)"><g><path d="M 8.046875 -33.21875 L 8.046875 -17.328125 L 26.90625 -17.328125 L 26.90625 -15.84375 L 8.046875 -15.84375 L 8.046875 0 L 6.359375 0 L 6.359375 -34.765625 L 29.140625 -34.765625 L 29.140625 -33.21875 Z M 8.046875 -33.21875 "/></g></g></g><g fill="#000000" fill-opacity="1"><g transform="translate(31.520838, 49.119933)"><g><path d="M 5.515625 -25.765625 L 7.15625 -25.765625 L 7.15625 0 L 5.515625 0 Z M 6.3125 -32.53125 C 5.875 -32.53125 5.488281 -32.6875 5.15625 -33 C 4.832031 -33.3125 4.671875 -33.679688 4.671875 -34.109375 C 4.671875 -34.578125 4.828125 -34.96875 5.140625 -35.28125 C 5.453125 -35.59375 5.84375 -35.75 6.3125 -35.75 C 6.738281 -35.75 7.113281 -35.59375 7.4375 -35.28125 C 7.769531 -34.96875 7.9375 -34.59375 7.9375 -34.15625 C 7.9375 -33.726562 7.769531 -33.347656 7.4375 -33.015625 C 7.113281 -32.691406 6.738281 -32.53125 6.3125 -32.53125 Z M 6.3125 -32.53125 "/></g></g></g><g fill="#000000" fill-opacity="1"><g transform="translate(44.178881, 49.119933)"><g><path d="M 17.671875 -25.96875 C 20.890625 -25.96875 23.425781 -25.03125 25.28125 -23.15625 C 27.132812 -21.289062 28.0625 -18.617188 28.0625 -15.140625 L 28.0625 0 L 26.421875 0 L 26.421875 -15.046875 C 26.421875 -18.085938 25.648438 -20.410156 24.109375 -22.015625 C 22.566406 -23.628906 20.375 -24.4375 17.53125 -24.4375 C 14.320312 -24.4375 11.789062 -23.484375 9.9375 -21.578125 C 8.082031 -19.671875 7.15625 -17.113281 7.15625 -13.90625 L 7.15625 0 L 5.515625 0 L 5.515625 -25.765625 L 7.09375 -25.765625 L 7.09375 -19.46875 C 7.925781 -21.488281 9.257812 -23.078125 11.09375 -24.234375 C 12.9375 -25.390625 15.128906 -25.96875 17.671875 -25.96875 Z M 17.671875 -25.96875 "/></g></g></g><g fill="#000000" fill-opacity="1"><g transform="translate(77.43727, 49.119933)"><g><path d="M 17.671875 -1.640625 C 17.078125 -1.078125 16.316406 -0.632812 15.390625 -0.3125 C 14.460938 0 13.503906 0.15625 12.515625 0.15625 C 10.429688 0.15625 8.816406 -0.429688 7.671875 -1.609375 C 6.523438 -2.785156 5.953125 -4.398438 5.953125 -6.453125 L 5.953125 -24.328125 L 1.09375 -24.328125 L 1.09375 -25.765625 L 5.953125 -25.765625 L 5.953125 -31.4375 L 7.59375 -31.4375 L 7.59375 -25.765625 L 16.09375 -25.765625 L 16.09375 -24.328125 L 7.59375 -24.328125 L 7.59375 -6.703125 C 7.59375 -4.953125 8.019531 -3.613281 8.875 -2.6875 C 9.738281 -1.757812 11 -1.296875 12.65625 -1.296875 C 14.3125 -1.296875 15.703125 -1.804688 16.828125 -2.828125 Z M 17.671875 -1.640625 "/></g></g></g><g fill="#000000" fill-opacity="1"><g transform="translate(95.902915, 49.119933)"><g><path d="M 26.765625 -12.65625 L 4.171875 -12.65625 C 4.203125 -10.476562 4.710938 -8.523438 5.703125 -6.796875 C 6.703125 -5.078125 8.066406 -3.738281 9.796875 -2.78125 C 11.535156 -1.820312 13.484375 -1.34375 15.640625 -1.34375 C 17.398438 -1.34375 19.023438 -1.664062 20.515625 -2.3125 C 22.003906 -2.957031 23.226562 -3.910156 24.1875 -5.171875 L 25.21875 -4.078125 C 24.0625 -2.710938 22.65625 -1.664062 21 -0.9375 C 19.34375 -0.207031 17.554688 0.15625 15.640625 0.15625 C 13.128906 0.15625 10.882812 -0.394531 8.90625 -1.5 C 6.9375 -2.613281 5.390625 -4.164062 4.265625 -6.15625 C 3.140625 -8.144531 2.578125 -10.394531 2.578125 -12.90625 C 2.578125 -15.425781 3.097656 -17.675781 4.140625 -19.65625 C 5.179688 -21.644531 6.628906 -23.191406 8.484375 -24.296875 C 10.335938 -25.410156 12.410156 -25.96875 14.703125 -25.96875 C 16.953125 -25.96875 18.992188 -25.421875 20.828125 -24.328125 C 22.671875 -23.234375 24.117188 -21.707031 25.171875 -19.75 C 26.234375 -17.800781 26.765625 -15.585938 26.765625 -13.109375 Z M 14.703125 -24.484375 C 12.773438 -24.484375 11.035156 -24.035156 9.484375 -23.140625 C 7.929688 -22.242188 6.691406 -20.992188 5.765625 -19.390625 C 4.835938 -17.785156 4.320312 -15.988281 4.21875 -14 L 25.21875 -14 C 25.09375 -15.988281 24.554688 -17.785156 23.609375 -19.390625 C 22.671875 -20.992188 21.429688 -22.242188 19.890625 -23.140625 C 18.347656 -24.035156 16.617188 -24.484375 14.703125 -24.484375 Z M 14.703125 -24.484375 "/></g></g></g><g fill="#000000" fill-opacity="1"><g transform="translate(125.239812, 49.119933)"><g><path d="M 15.390625 0.15625 C 12.941406 0.15625 10.75 -0.394531 8.8125 -1.5 C 6.875 -2.613281 5.347656 -4.164062 4.234375 -6.15625 C 3.128906 -8.144531 2.578125 -10.394531 2.578125 -12.90625 C 2.578125 -15.425781 3.128906 -17.675781 4.234375 -19.65625 C 5.347656 -21.644531 6.875 -23.191406 8.8125 -24.296875 C 10.75 -25.410156 12.941406 -25.96875 15.390625 -25.96875 C 17.347656 -25.96875 19.160156 -25.59375 20.828125 -24.84375 C 22.503906 -24.101562 23.867188 -23.003906 24.921875 -21.546875 L 23.6875 -20.515625 C 22.757812 -21.796875 21.570312 -22.769531 20.125 -23.4375 C 18.6875 -24.101562 17.109375 -24.4375 15.390625 -24.4375 C 13.273438 -24.4375 11.363281 -23.945312 9.65625 -22.96875 C 7.945312 -21.988281 6.613281 -20.628906 5.65625 -18.890625 C 4.695312 -17.148438 4.21875 -15.15625 4.21875 -12.90625 C 4.21875 -10.65625 4.695312 -8.648438 5.65625 -6.890625 C 6.613281 -5.140625 7.945312 -3.773438 9.65625 -2.796875 C 11.363281 -1.828125 13.273438 -1.34375 15.390625 -1.34375 C 17.109375 -1.34375 18.6875 -1.671875 20.125 -2.328125 C 21.570312 -2.992188 22.757812 -3.972656 23.6875 -5.265625 L 24.921875 -4.265625 C 23.867188 -2.804688 22.503906 -1.703125 20.828125 -0.953125 C 19.160156 -0.210938 17.347656 0.15625 15.390625 0.15625 Z M 15.390625 0.15625 "/></g></g></g><g fill="#000000" fill-opacity="1"><g transform="translate(152.045, 49.119933)"><g><path d="M 17.671875 -25.96875 C 20.890625 -25.96875 23.425781 -25.03125 25.28125 -23.15625 C 27.132812 -21.289062 28.0625 -18.617188 28.0625 -15.140625 L 28.0625 0 L 26.421875 0 L 26.421875 -15.046875 C 26.421875 -18.085938 25.648438 -20.410156 24.109375 -22.015625 C 22.566406 -23.628906 20.375 -24.4375 17.53125 -24.4375 C 14.320312 -24.4375 11.789062 -23.484375 9.9375 -21.578125 C 8.082031 -19.671875 7.15625 -17.113281 7.15625 -13.90625 L 7.15625 0 L 5.515625 0 L 5.515625 -36.84375 L 7.15625 -36.84375 L 7.15625 -19.609375 C 8.007812 -21.597656 9.347656 -23.15625 11.171875 -24.28125 C 12.992188 -25.40625 15.160156 -25.96875 17.671875 -25.96875 Z M 17.671875 -25.96875 "/></g></g></g><g fill="#000000" fill-opacity="1"><g transform="translate(185.303389, 49.119933)"><g/></g></g><g fill="#000000" fill-opacity="1"><g transform="translate(197.862151, 49.119933)"><g><path d="M 11.71875 0.15625 C 9.632812 0.15625 7.671875 -0.15625 5.828125 -0.78125 C 3.992188 -1.414062 2.566406 -2.25 1.546875 -3.28125 L 2.328125 -4.5625 C 3.390625 -3.632812 4.753906 -2.859375 6.421875 -2.234375 C 8.097656 -1.609375 9.878906 -1.296875 11.765625 -1.296875 C 14.546875 -1.296875 16.597656 -1.765625 17.921875 -2.703125 C 19.242188 -3.648438 19.90625 -4.96875 19.90625 -6.65625 C 19.90625 -7.84375 19.550781 -8.785156 18.84375 -9.484375 C 18.132812 -10.179688 17.25 -10.691406 16.1875 -11.015625 C 15.125 -11.347656 13.703125 -11.679688 11.921875 -12.015625 C 9.835938 -12.410156 8.171875 -12.816406 6.921875 -13.234375 C 5.679688 -13.648438 4.628906 -14.320312 3.765625 -15.25 C 2.910156 -16.175781 2.484375 -17.46875 2.484375 -19.125 C 2.484375 -21.070312 3.285156 -22.695312 4.890625 -24 C 6.492188 -25.3125 8.835938 -25.96875 11.921875 -25.96875 C 13.503906 -25.96875 15.085938 -25.726562 16.671875 -25.25 C 18.265625 -24.769531 19.5625 -24.132812 20.5625 -23.34375 L 19.71875 -22.046875 C 18.6875 -22.835938 17.484375 -23.441406 16.109375 -23.859375 C 14.734375 -24.273438 13.320312 -24.484375 11.875 -24.484375 C 9.320312 -24.484375 7.398438 -23.992188 6.109375 -23.015625 C 4.816406 -22.035156 4.171875 -20.753906 4.171875 -19.171875 C 4.171875 -17.910156 4.535156 -16.914062 5.265625 -16.1875 C 5.992188 -15.457031 6.894531 -14.914062 7.96875 -14.5625 C 9.039062 -14.21875 10.503906 -13.863281 12.359375 -13.5 C 14.347656 -13.132812 15.953125 -12.742188 17.171875 -12.328125 C 18.398438 -11.921875 19.4375 -11.269531 20.28125 -10.375 C 21.125 -9.476562 21.546875 -8.238281 21.546875 -6.65625 C 21.546875 -4.570312 20.703125 -2.914062 19.015625 -1.6875 C 17.328125 -0.457031 14.894531 0.15625 11.71875 0.15625 Z M 11.71875 0.15625 "/></g></g></g><g fill="#000000" fill-opacity="1"><g transform="translate(221.192652, 49.119933)"><g><path d="M 27.5625 -25.765625 L 27.5625 0 L 25.96875 0 L 25.96875 -6.25 C 25.175781 -4.238281 23.898438 -2.664062 22.140625 -1.53125 C 20.390625 -0.40625 18.304688 0.15625 15.890625 0.15625 C 12.546875 0.15625 9.929688 -0.769531 8.046875 -2.625 C 6.160156 -4.476562 5.21875 -7.144531 5.21875 -10.625 L 5.21875 -25.765625 L 6.859375 -25.765625 L 6.859375 -10.71875 C 6.859375 -7.675781 7.640625 -5.351562 9.203125 -3.75 C 10.773438 -2.144531 13.019531 -1.34375 15.9375 -1.34375 C 19.019531 -1.34375 21.453125 -2.289062 23.234375 -4.1875 C 25.023438 -6.09375 25.921875 -8.65625 25.921875 -11.875 L 25.921875 -25.765625 Z M 27.5625 -25.765625 "/></g></g></g><g fill="#000000" fill-opacity="1"><g transform="translate(254.252479, 49.119933)"><g><path d="M 11.71875 0.15625 C 9.632812 0.15625 7.671875 -0.15625 5.828125 -0.78125 C 3.992188 -1.414062 2.566406 -2.25 1.546875 -3.28125 L 2.328125 -4.5625 C 3.390625 -3.632812 4.753906 -2.859375 6.421875 -2.234375 C 8.097656 -1.609375 9.878906 -1.296875 11.765625 -1.296875 C 14.546875 -1.296875 16.597656 -1.765625 17.921875 -2.703125 C 19.242188 -3.648438 19.90625 -4.96875 19.90625 -6.65625 C 19.90625 -7.84375 19.550781 -8.785156 18.84375 -9.484375 C 18.132812 -10.179688 17.25 -10.691406 16.1875 -11.015625 C 15.125 -11.347656 13.703125 -11.679688 11.921875 -12.015625 C 9.835938 -12.410156 8.171875 -12.816406 6.921875 -13.234375 C 5.679688 -13.648438 4.628906 -14.320312 3.765625 -15.25 C 2.910156 -16.175781 2.484375 -17.46875 2.484375 -19.125 C 2.484375 -21.070312 3.285156 -22.695312 4.890625 -24 C 6.492188 -25.3125 8.835938 -25.96875 11.921875 -25.96875 C 13.503906 -25.96875 15.085938 -25.726562 16.671875 -25.25 C 18.265625 -24.769531 19.5625 -24.132812 20.5625 -23.34375 L 19.71875 -22.046875 C 18.6875 -22.835938 17.484375 -23.441406 16.109375 -23.859375 C 14.734375 -24.273438 13.320312 -24.484375 11.875 -24.484375 C 9.320312 -24.484375 7.398438 -23.992188 6.109375 -23.015625 C 4.816406 -22.035156 4.171875 -20.753906 4.171875 -19.171875 C 4.171875 -17.910156 4.535156 -16.914062 5.265625 -16.1875 C 5.992188 -15.457031 6.894531 -14.914062 7.96875 -14.5625 C 9.039062 -14.21875 10.503906 -13.863281 12.359375 -13.5 C 14.347656 -13.132812 15.953125 -12.742188 17.171875 -12.328125 C 18.398438 -11.921875 19.4375 -11.269531 20.28125 -10.375 C 21.125 -9.476562 21.546875 -8.238281 21.546875 -6.65625 C 21.546875 -4.570312 20.703125 -2.914062 19.015625 -1.6875 C 17.328125 -0.457031 14.894531 0.15625 11.71875 0.15625 Z M 11.71875 0.15625 "/></g></g></g><g fill="#000000" fill-opacity="1"><g transform="translate(277.58298, 49.119933)"><g><path d="M 17.671875 -1.640625 C 17.078125 -1.078125 16.316406 -0.632812 15.390625 -0.3125 C 14.460938 0 13.503906 0.15625 12.515625 0.15625 C 10.429688 0.15625 8.816406 -0.429688 7.671875 -1.609375 C 6.523438 -2.785156 5.953125 -4.398438 5.953125 -6.453125 L 5.953125 -24.328125 L 1.09375 -24.328125 L 1.09375 -25.765625 L 5.953125 -25.765625 L 5.953125 -31.4375 L 7.59375 -31.4375 L 7.59375 -25.765625 L 16.09375 -25.765625 L 16.09375 -24.328125 L 7.59375 -24.328125 L 7.59375 -6.703125 C 7.59375 -4.953125 8.019531 -3.613281 8.875 -2.6875 C 9.738281 -1.757812 11 -1.296875 12.65625 -1.296875 C 14.3125 -1.296875 15.703125 -1.804688 16.828125 -2.828125 Z M 17.671875 -1.640625 "/></g></g></g><g fill="#000000" fill-opacity="1"><g transform="translate(296.048624, 49.119933)"><g><path d="M 26.765625 -12.65625 L 4.171875 -12.65625 C 4.203125 -10.476562 4.710938 -8.523438 5.703125 -6.796875 C 6.703125 -5.078125 8.066406 -3.738281 9.796875 -2.78125 C 11.535156 -1.820312 13.484375 -1.34375 15.640625 -1.34375 C 17.398438 -1.34375 19.023438 -1.664062 20.515625 -2.3125 C 22.003906 -2.957031 23.226562 -3.910156 24.1875 -5.171875 L 25.21875 -4.078125 C 24.0625 -2.710938 22.65625 -1.664062 21 -0.9375 C 19.34375 -0.207031 17.554688 0.15625 15.640625 0.15625 C 13.128906 0.15625 10.882812 -0.394531 8.90625 -1.5 C 6.9375 -2.613281 5.390625 -4.164062 4.265625 -6.15625 C 3.140625 -8.144531 2.578125 -10.394531 2.578125 -12.90625 C 2.578125 -15.425781 3.097656 -17.675781 4.140625 -19.65625 C 5.179688 -21.644531 6.628906 -23.191406 8.484375 -24.296875 C 10.335938 -25.410156 12.410156 -25.96875 14.703125 -25.96875 C 16.953125 -25.96875 18.992188 -25.421875 20.828125 -24.328125 C 22.671875 -23.234375 24.117188 -21.707031 25.171875 -19.75 C 26.234375 -17.800781 26.765625 -15.585938 26.765625 -13.109375 Z M 14.703125 -24.484375 C 12.773438 -24.484375 11.035156 -24.035156 9.484375 -23.140625 C 7.929688 -22.242188 6.691406 -20.992188 5.765625 -19.390625 C 4.835938 -17.785156 4.320312 -15.988281 4.21875 -14 L 25.21875 -14 C 25.09375 -15.988281 24.554688 -17.785156 23.609375 -19.390625 C 22.671875 -20.992188 21.429688 -22.242188 19.890625 -23.140625 C 18.347656 -24.035156 16.617188 -24.484375 14.703125 -24.484375 Z M 14.703125 -24.484375 "/></g></g></g><g fill="#000000" fill-opacity="1"><g transform="translate(325.385522, 49.119933)"><g><path d="M 17.671875 -25.96875 C 20.890625 -25.96875 23.425781 -25.03125 25.28125 -23.15625 C 27.132812 -21.289062 28.0625 -18.617188 28.0625 -15.140625 L 28.0625 0 L 26.421875 0 L 26.421875 -15.046875 C 26.421875 -18.085938 25.648438 -20.410156 24.109375 -22.015625 C 22.566406 -23.628906 20.375 -24.4375 17.53125 -24.4375 C 14.320312 -24.4375 11.789062 -23.484375 9.9375 -21.578125 C 8.082031 -19.671875 7.15625 -17.113281 7.15625 -13.90625 L 7.15625 0 L 5.515625 0 L 5.515625 -25.765625 L 7.09375 -25.765625 L 7.09375 -19.46875 C 7.925781 -21.488281 9.257812 -23.078125 11.09375 -24.234375 C 12.9375 -25.390625 15.128906 -25.96875 17.671875 -25.96875 Z M 17.671875 -25.96875 "/></g></g></g><g fill="#000000" fill-opacity="1"><g transform="translate(358.643911, 49.119933)"><g><path d="M 17.671875 -1.640625 C 17.078125 -1.078125 16.316406 -0.632812 15.390625 -0.3125 C 14.460938 0 13.503906 0.15625 12.515625 0.15625 C 10.429688 0.15625 8.816406 -0.429688 7.671875 -1.609375 C 6.523438 -2.785156 5.953125 -4.398438 5.953125 -6.453125 L 5.953125 -24.328125 L 1.09375 -24.328125 L 1.09375 -25.765625 L 5.953125 -25.765625 L 5.953125 -31.4375 L 7.59375 -31.4375 L 7.59375 -25.765625 L 16.09375 -25.765625 L 16.09375 -24.328125 L 7.59375 -24.328125 L 7.59375 -6.703125 C 7.59375 -4.953125 8.019531 -3.613281 8.875 -2.6875 C 9.738281 -1.757812 11 -1.296875 12.65625 -1.296875 C 14.3125 -1.296875 15.703125 -1.804688 16.828125 -2.828125 Z M 17.671875 -1.640625 "/></g></g></g><g fill="#000000" fill-opacity="1"><g transform="translate(378.102561, 49.119933)"><g><path d="M 13.953125 -25.96875 C 17.035156 -25.96875 19.394531 -25.171875 21.03125 -23.578125 C 22.664062 -21.992188 23.484375 -19.695312 23.484375 -16.6875 L 23.484375 0 L 21.890625 0 L 21.890625 -5.171875 C 21.066406 -3.515625 19.832031 -2.210938 18.1875 -1.265625 C 16.550781 -0.316406 14.59375 0.15625 12.3125 0.15625 C 9.4375 0.15625 7.175781 -0.503906 5.53125 -1.828125 C 3.894531 -3.160156 3.078125 -4.914062 3.078125 -7.09375 C 3.078125 -9.1875 3.820312 -10.882812 5.3125 -12.1875 C 6.800781 -13.5 9.1875 -14.15625 12.46875 -14.15625 L 21.84375 -14.15625 L 21.84375 -16.6875 C 21.84375 -19.238281 21.171875 -21.175781 19.828125 -22.5 C 18.492188 -23.820312 16.519531 -24.484375 13.90625 -24.484375 C 12.082031 -24.484375 10.375 -24.164062 8.78125 -23.53125 C 7.195312 -22.90625 5.84375 -22.0625 4.71875 -21 L 3.828125 -22.203125 C 5.078125 -23.390625 6.585938 -24.3125 8.359375 -24.96875 C 10.140625 -25.632812 12.003906 -25.96875 13.953125 -25.96875 Z M 12.40625 -1.234375 C 17.039062 -1.234375 20.1875 -3.304688 21.84375 -7.453125 L 21.84375 -12.8125 L 12.46875 -12.8125 C 9.78125 -12.8125 7.816406 -12.304688 6.578125 -11.296875 C 5.335938 -10.285156 4.71875 -8.921875 4.71875 -7.203125 C 4.71875 -5.347656 5.40625 -3.890625 6.78125 -2.828125 C 8.15625 -1.765625 10.03125 -1.234375 12.40625 -1.234375 Z M 18.125 -35.75 L 20.8125 -35.75 L 13.21875 -30.140625 L 11.234375 -30.140625 Z M 18.125 -35.75 "/></g></g></g><g fill="#000000" fill-opacity="1"><g transform="translate(406.297609, 49.119933)"><g><path d="M 25.421875 -25.765625 L 13.65625 0 L 12.015625 0 L 0.25 -25.765625 L 2.03125 -25.765625 L 12.859375 -1.84375 L 23.6875 -25.765625 Z M 25.421875 -25.765625 "/></g></g></g><g fill="#000000" fill-opacity="1"><g transform="translate(431.216415, 49.119933)"><g><path d="M 26.765625 -12.65625 L 4.171875 -12.65625 C 4.203125 -10.476562 4.710938 -8.523438 5.703125 -6.796875 C 6.703125 -5.078125 8.066406 -3.738281 9.796875 -2.78125 C 11.535156 -1.820312 13.484375 -1.34375 15.640625 -1.34375 C 17.398438 -1.34375 19.023438 -1.664062 20.515625 -2.3125 C 22.003906 -2.957031 23.226562 -3.910156 24.1875 -5.171875 L 25.21875 -4.078125 C 24.0625 -2.710938 22.65625 -1.664062 21 -0.9375 C 19.34375 -0.207031 17.554688 0.15625 15.640625 0.15625 C 13.128906 0.15625 10.882812 -0.394531 8.90625 -1.5 C 6.9375 -2.613281 5.390625 -4.164062 4.265625 -6.15625 C 3.140625 -8.144531 2.578125 -10.394531 2.578125 -12.90625 C 2.578125 -15.425781 3.097656 -17.675781 4.140625 -19.65625 C 5.179688 -21.644531 6.628906 -23.191406 8.484375 -24.296875 C 10.335938 -25.410156 12.410156 -25.96875 14.703125 -25.96875 C 16.953125 -25.96875 18.992188 -25.421875 20.828125 -24.328125 C 22.671875 -23.234375 24.117188 -21.707031 25.171875 -19.75 C 26.234375 -17.800781 26.765625 -15.585938 26.765625 -13.109375 Z M 14.703125 -24.484375 C 12.773438 -24.484375 11.035156 -24.035156 9.484375 -23.140625 C 7.929688 -22.242188 6.691406 -20.992188 5.765625 -19.390625 C 4.835938 -17.785156 4.320312 -15.988281 4.21875 -14 L 25.21875 -14 C 25.09375 -15.988281 24.554688 -17.785156 23.609375 -19.390625 C 22.671875 -20.992188 21.429688 -22.242188 19.890625 -23.140625 C 18.347656 -24.035156 16.617188 -24.484375 14.703125 -24.484375 Z M 14.703125 -24.484375 "/></g></g></g><g fill="#000000" fill-opacity="1"><g transform="translate(460.553313, 49.119933)"><g><path d="M 5.515625 -36.84375 L 7.15625 -36.84375 L 7.15625 0 L 5.515625 0 Z M 5.515625 -36.84375 "/></g></g></g></g></g></svg>